PathFileType	4	(X/Y/Z)	TVC_12_BWA3_walk_RCNL2025.trc
DataRate	CameraRate	NumFrames	NumMarkers	Units	OrigDataRate	OrigDataStartFrame	OrigNumFrames
100	100	4	27	mm	100	310	354
Frame#	Time	R_Shoulder			L_Shoulder			C7			J_Notch			R_Elbow			L_Elbow			R_Wrist			L_Wrist			R_Asis			L_Asis			R_Psis			L_Psis			Sacral			Thoracic			Sternum			R_Thigh_Lateral			R_Knee_Lateral			R_Shank_Lateral			R_Ankle_Lateral			R_Heel			R_Toe			L_Thigh_Lateral			L_Knee_Lateral			L_Shank_Lateral			L_Ankle_Lateral			L_Heel			L_Toe		
		X1	Y1	Z1	X2	Y2	Z2	X3	Y3	Z3	X4	Y4	Z4	X5	Y5	Z5	X6	Y6	Z6	X7	Y7	Z7	X8	Y8	Z8	X9	Y9	Z9	X10	Y10	Z10	X11	Y11	Z11	X12	Y12	Z12	X13	Y13	Z13	X14	Y14	Z14	X15	Y15	Z15	X16	Y16	Z16	X17	Y17	Z17	X18	Y18	Z18	X19	Y19	Z19	X20	Y20	Z20	X21	Y21	Z21	X22	Y22	Z22	X23	Y23	Z23	X24	Y24	Z24	X25	Y25	Z25	X26	Y26	Z26	X27	Y27	Z27
310	3.09000000	272.578491	1341.680786	551.534180	256.213470	1371.434814	134.771500	155.986816	1424.550049	352.081848	312.021881	1314.677368	342.989563	169.938110	1017.438660	606.694519	92.908089	1073.255371	59.641804	236.820343	778.602356	557.039307	114.818474	834.868988	113.381615	236.435226	915.379944	486.311493	234.227890	936.755310	142.579681	56.684185	961.151306	379.921997	52.745220	965.054749	271.302338	54.714703	963.103027	325.612167	67.588402	1177.927246	331.324707	396.926666	1123.038696	322.696442	246.799393	605.570496	499.958710	279.413177	481.450317	441.500824	235.172165	264.921326	471.834259	218.088470	59.828278	394.366821	179.994598	59.682869	335.369080	356.062897	48.042393	381.938751	238.142029	640.660828	58.239193	213.890198	475.318390	115.338821	60.973309	348.369232	92.190308	-71.984558	190.051880	181.324875	-106.341499	203.986847	242.784241	2.137108	66.871880	186.473389
311	3.10000000	279.947083	1341.290161	552.170959	262.057983	1371.079468	135.472229	162.646439	1424.503174	353.123718	318.453705	1314.394165	343.515320	177.927444	1017.037720	608.207275	98.874916	1072.446533	61.305664	245.407524	778.266571	559.396027	122.796257	834.396454	115.609211	242.668549	915.324158	487.662231	239.473724	936.454895	143.170486	62.732597	961.347229	381.500641	58.500996	964.954407	273.004211	60.616796	963.150818	327.252426	73.811775	1178.071167	332.747925	402.930969	1122.546143	322.874725	253.259048	605.744629	501.148651	283.452515	480.952667	442.043671	237.356964	264.643677	472.103088	218.255142	59.797741	394.344025	180.101288	59.833996	335.433411	356.185364	48.125511	381.853973	246.918640	640.888550	58.287010	229.069336	475.589417	115.905823	77.525497	348.080505	92.850502	-54.611771	189.122818	182.111191	-89.573425	202.450943	243.408081	22.343687	67.967438	187.008270
312	3.11000000	287.273041	1340.940552	552.715271	267.833618	1370.743408	136.084900	169.273132	1424.480469	354.086670	324.834137	1314.109985	343.945801	185.934525	1016.658936	609.577087	104.614006	1071.730103	62.959766	253.938965	777.915375	561.746887	130.099457	833.994934	117.731785	248.726624	915.212769	489.026428	244.646149	936.174438	143.705154	68.720200	961.581177	383.000031	64.194595	964.901001	274.606659	66.457397	963.241089	328.803345	79.975677	1178.245728	334.088959	408.853516	1122.048584	322.962646	259.188690	605.844299	502.178772	287.243225	480.467377	442.548859	239.358765	264.375366	472.359528	218.405899	59.775364	394.336029	180.193542	59.986198	335.506989	356.313385	48.220345	381.773346	255.204422	641.018372	58.378048	244.301483	476.114655	116.639755	94.406723	347.549774	93.545036	-36.584454	187.532822	182.847229	-72.238960	200.248764	243.880463	43.534641	68.728233	187.831253
313	3.12000000	294.550629	1340.647461	553.171265	273.550049	1370.442871	136.612305	175.869904	1424.492188	354.969910	331.169861	1313.841064	344.286469	193.947083	1016.318909	610.809082	110.138634	1071.125488	64.594772	262.415871	777.570709	564.083527	136.722561	833.665985	119.758739	254.643570	915.074097	490.371185	249.766678	935.932678	144.197754	74.656265	961.863831	384.419891	69.837929	964.904663	276.105255	72.247097	963.384247	330.262573	86.089386	1178.459229	335.346558	414.708160	1121.566406	322.972107	264.612762	605.886963	503.058838	290.768585	480.002960	443.012817	241.166046	264.126556	472.601166	218.538803	59.763859	394.343567	180.269135	60.143963	335.588348	356.439850	48.321861	381.701813	263.106659	641.074341	58.543053	259.509674	476.917847	117.524918	111.548050	346.793365	94.274162	-17.927235	185.315430	183.543747	-54.345268	197.394791	244.240051	65.604935	69.162720	188.886032
